<svg
      width="1519"
      height="204"
      viewBox="0 0 1519 204"
      fill="none"
      xmlns="http://www.w3.org/2000/svg"
    >
      <path
        d="M39.503 158.196C23.2555 164.757 0.434326 180.247 0.434326 180.247V203.994H1519.02V168.373C1489.01 157.065 1471.45 134.448 1435.78 134.448C1400.11 134.448 1356.51 146.887 1313.48 153.107C1270.45 159.327 1219.99 118.053 1157.21 114.093C1114.09 111.374 1075.67 127.663 1046.79 120.878C1017.92 114.093 1009.42 58.1168 982.246 54.7245C955.068 51.3321 936.886 61.6 909.205 54.7245C871.531 45.3668 864.487 -4.42004 825.972 0.444495C790.136 4.97058 790.709 46.3617 759.725 64.902C731.474 81.8068 712.145 85.3977 679.889 92.042C610.873 106.258 540.035 84.1261 499.834 80.1682C459.633 76.2103 434.926 121.463 392.819 110.701C362.862 103.044 357.148 58.117 328.271 64.902C299.394 71.687 323.175 110.701 297.696 120.878C272.216 131.056 262.024 119.182 248.435 124.271C234.846 129.359 237.023 133.897 226.353 144.626C213.39 157.66 201.303 159.065 183.887 164.981C130.447 183.134 91.8339 137.063 39.503 158.196Z"
        fill="#FEB0B0"
      />
      <path
        d="M248.262 164.839C230.013 170.043 219.383 203.992 219.383 203.992H221.927H1501.94C1501.94 203.992 1459.74 183.579 1430.59 178.457C1377.83 169.184 1348.21 199.729 1294.69 197.183C1237.32 194.454 1209.27 165.868 1152 161.434C1109.62 158.153 1081.86 184.413 1043.28 166.541C1011.32 151.737 1015.06 112.637 982.123 100.15C956.063 90.2692 937.899 106.541 910.776 100.15C873.672 91.4083 852.452 26.3829 827.537 49.0806C802.622 71.7783 788.694 98.478 754.49 117.174C726.487 132.481 705.227 137.602 676.348 141.006C647.469 144.411 545.544 117.174 497.979 127.388C450.414 137.602 428.33 169.946 428.33 169.946C428.33 169.946 418.137 175.053 402.849 158.03C387.56 141.006 351.886 100.15 326.405 106.96C300.923 113.769 317.566 170.248 287.333 175.053C271.759 177.528 263.429 160.514 248.262 164.839Z"
        fill="#FC8493"
      />
      <path
        d="M320.171 169.568C281.106 175.305 272.614 203.993 272.614 203.993H1130.33C1130.33 203.993 1082.47 166.76 1047.11 152.355C1020.39 141.47 975.772 133.421 975.772 133.421C975.772 133.421 833.665 98.4302 749.878 126.536C726.478 134.386 715.495 144.396 692.131 152.355C640.818 169.835 594.753 175.305 554.557 169.568C514.36 163.83 482.566 152.16 435.665 152.355C390.077 152.545 359.235 163.83 320.171 169.568Z"
        fill="#F7647E"
      />
    </svg>